<svg xmlns="http://www.w3.org/2000/svg" width="700" height="1500" viewBox="0 0 700 1500"><g transform="translate(0, 0)"><path d="M 20 100 C 20 69.19795972159974, 80 69.19795972159974, 80 100" fill="none" stroke="rgba(255,255,255,0.4)" stroke-width="4"/><circle cx="50" cy="39.54099477676131" r="29.65696494483844" fill="none" stroke="rgba(255,255,255,0.6)" stroke-width="4"/><circle cx="35.17151752758078" cy="34.54099477676131" r="2" fill="rgba(255,255,255,0.8)"/><circle cx="64.82848247241922" cy="34.54099477676131" r="2" fill="rgba(255,255,255,0.8)"/></g><g transform="translate(100, 0)"><path d="M 20 100 C 20 68.42039134638922, 80 68.42039134638922, 80 100" fill="none" stroke="rgba(255,255,255,0.4)" stroke-width="4"/><circle cx="50" cy="38.5061743476862" r="29.914216998703026" fill="none" stroke="rgba(255,255,255,0.6)" stroke-width="4"/><circle cx="35.04289150064849" cy="33.5061743476862" r="2" fill="rgba(255,255,255,0.8)"/><circle cx="64.9571084993515" cy="33.5061743476862" r="2" fill="rgba(255,255,255,0.8)"/></g><g transform="translate(200, 0)"><path d="M 20 100 C 20 66.36798233994367, 80 66.36798233994367, 80 100" fill="none" stroke="rgba(255,255,255,0.4)" stroke-width="4"/><circle cx="50" cy="39.92498929406082" r="26.442993045882844" fill="none" stroke="rgba(255,255,255,0.6)" stroke-width="4"/><circle cx="36.77850347705858" cy="34.92498929406082" r="2" fill="rgba(255,255,255,0.8)"/><circle cx="63.22149652294142" cy="34.92498929406082" r="2" fill="rgba(255,255,255,0.8)"/></g><g transform="translate(300, 0)"><path d="M 20 100 C 20 50.22029406094934, 80 50.22029406094934, 80 100" fill="none" stroke="rgba(255,255,255,0.4)" stroke-width="4"/><circle cx="50" cy="28.5793428719149" r="21.640951189034443" fill="none" stroke="rgba(255,255,255,0.6)" stroke-width="4"/><circle cx="39.17952440548278" cy="23.5793428719149" r="2" fill="rgba(255,255,255,0.8)"/><circle cx="60.82047559451722" cy="23.5793428719149" r="2" fill="rgba(255,255,255,0.8)"/></g><g transform="translate(400, 0)"><path d="M 20 100 C 20 66.86206846990532, 80 66.86206846990532, 80 100" fill="none" stroke="rgba(255,255,255,0.4)" stroke-width="4"/><circle cx="50" cy="44.77275772365613" r="22.0893107462492" fill="none" stroke="rgba(255,255,255,0.6)" stroke-width="4"/><circle cx="38.9553446268754" cy="39.77275772365613" r="2" fill="rgba(255,255,255,0.8)"/><circle cx="61.0446553731246" cy="39.77275772365613" r="2" fill="rgba(255,255,255,0.8)"/></g><g transform="translate(500, 0)"><path d="M 20 100 C 20 56.22068155932296, 80 56.22068155932296, 80 100" fill="none" stroke="rgba(255,255,255,0.4)" stroke-width="4"/><circle cx="50" cy="30.44633549773239" r="25.77434606159057" fill="none" stroke="rgba(255,255,255,0.6)" stroke-width="4"/><circle cx="37.11282696920472" cy="25.44633549773239" r="2" fill="rgba(255,255,255,0.8)"/><circle cx="62.88717303079528" cy="25.44633549773239" r="2" fill="rgba(255,255,255,0.8)"/></g><g transform="translate(600, 0)"><path d="M 20 100 C 20 56.799960501049576, 80 56.799960501049576, 80 100" fill="none" stroke="rgba(255,255,255,0.4)" stroke-width="4"/><circle cx="50" cy="29.288173216884154" r="27.511787284165422" fill="none" stroke="rgba(255,255,255,0.6)" stroke-width="4"/><circle cx="36.24410635791729" cy="24.288173216884154" r="2" fill="rgba(255,255,255,0.8)"/><circle cx="63.75589364208271" cy="24.288173216884154" r="2" fill="rgba(255,255,255,0.8)"/></g><g transform="translate(0, 100)"><path d="M 20 100 C 20 62.6769659513683, 80 62.6769659513683, 80 100" fill="none" stroke="rgba(255,255,255,0.4)" stroke-width="4"/><circle cx="50" cy="33.423865178274895" r="29.253100773093408" fill="none" stroke="rgba(255,255,255,0.6)" stroke-width="4"/><circle cx="35.373449613453296" cy="28.423865178274895" r="2" fill="rgba(255,255,255,0.8)"/><circle cx="64.62655038654671" cy="28.423865178274895" r="2" fill="rgba(255,255,255,0.8)"/></g><g transform="translate(100, 100)"><path d="M 20 100 C 20 55.20930068117835, 80 55.20930068117835, 80 100" fill="none" stroke="rgba(255,255,255,0.4)" stroke-width="4"/><circle cx="50" cy="34.639605745906366" r="20.56969493527198" fill="none" stroke="rgba(255,255,255,0.6)" stroke-width="4"/><circle cx="39.71515253236401" cy="29.639605745906366" r="2" fill="rgba(255,255,255,0.8)"/><circle cx="60.28484746763599" cy="29.639605745906366" r="2" fill="rgba(255,255,255,0.8)"/></g><g transform="translate(200, 100)"><path d="M 20 100 C 20 66.3758658039095, 80 66.3758658039095, 80 100" fill="none" stroke="rgba(255,255,255,0.4)" stroke-width="4"/><circle cx="50" cy="40.241963513290926" r="26.13390229061858" fill="none" stroke="rgba(255,255,255,0.6)" stroke-width="4"/><circle cx="36.93304885469071" cy="35.241963513290926" r="2" fill="rgba(255,255,255,0.8)"/><circle cx="63.06695114530929" cy="35.241963513290926" r="2" fill="rgba(255,255,255,0.8)"/></g><g transform="translate(300, 100)"><path d="M 20 100 C 20 53.78709079362007, 80 53.78709079362007, 80 100" fill="none" stroke="rgba(255,255,255,0.4)" stroke-width="4"/><circle cx="50" cy="32.54781644053017" r="21.239274353089897" fill="none" stroke="rgba(255,255,255,0.6)" stroke-width="4"/><circle cx="39.38036282345505" cy="27.54781644053017" r="2" fill="rgba(255,255,255,0.8)"/><circle cx="60.61963717654495" cy="27.54781644053017" r="2" fill="rgba(255,255,255,0.8)"/></g><g transform="translate(400, 100)"><path d="M 20 100 C 20 67.83647715390056, 80 67.83647715390056, 80 100" fill="none" stroke="rgba(255,255,255,0.4)" stroke-width="4"/><circle cx="50" cy="42.035225899217" r="25.801251254683564" fill="none" stroke="rgba(255,255,255,0.6)" stroke-width="4"/><circle cx="37.09937437265822" cy="37.035225899217" r="2" fill="rgba(255,255,255,0.8)"/><circle cx="62.90062562734178" cy="37.035225899217" r="2" fill="rgba(255,255,255,0.8)"/></g><g transform="translate(500, 100)"><path d="M 20 100 C 20 57.22471534130909, 80 57.22471534130909, 80 100" fill="none" stroke="rgba(255,255,255,0.4)" stroke-width="4"/><circle cx="50" cy="32.495685254961465" r="24.729030086347628" fill="none" stroke="rgba(255,255,255,0.6)" stroke-width="4"/><circle cx="37.63548495682619" cy="27.495685254961465" r="2" fill="rgba(255,255,255,0.8)"/><circle cx="62.36451504317381" cy="27.495685254961465" r="2" fill="rgba(255,255,255,0.8)"/></g><g transform="translate(600, 100)"><path d="M 20 100 C 20 64.43736027785317, 80 64.43736027785317, 80 100" fill="none" stroke="rgba(255,255,255,0.4)" stroke-width="4"/><circle cx="50" cy="36.28990716150145" r="28.14745311635172" fill="none" stroke="rgba(255,255,255,0.6)" stroke-width="4"/><circle cx="35.92627344182414" cy="31.289907161501453" r="2" fill="rgba(255,255,255,0.8)"/><circle cx="64.07372655817586" cy="31.289907161501453" r="2" fill="rgba(255,255,255,0.8)"/></g><g transform="translate(0, 200)"><path d="M 20 100 C 20 67.79922838048813, 80 67.79922838048813, 80 100" fill="none" stroke="rgba(255,255,255,0.4)" stroke-width="4"/><circle cx="50" cy="39.11456903192288" r="28.684659348565244" fill="none" stroke="rgba(255,255,255,0.6)" stroke-width="4"/><circle cx="35.657670325717376" cy="34.11456903192288" r="2" fill="rgba(255,255,255,0.8)"/><circle cx="64.34232967428262" cy="34.11456903192288" r="2" fill="rgba(255,255,255,0.8)"/></g><g transform="translate(100, 200)"><path d="M 20 100 C 20 54.18967727618423, 80 54.18967727618423, 80 100" fill="none" stroke="rgba(255,255,255,0.4)" stroke-width="4"/><circle cx="50" cy="32.411255948715095" r="21.778421327469136" fill="none" stroke="rgba(255,255,255,0.6)" stroke-width="4"/><circle cx="39.110789336265434" cy="27.411255948715095" r="2" fill="rgba(255,255,255,0.8)"/><circle cx="60.889210663734566" cy="27.411255948715095" r="2" fill="rgba(255,255,255,0.8)"/></g><g transform="translate(200, 200)"><path d="M 20 100 C 20 67.48655711540172, 80 67.48655711540172, 80 100" fill="none" stroke="rgba(255,255,255,0.4)" stroke-width="4"/><circle cx="50" cy="40.58022374022154" r="26.90633337518018" fill="none" stroke="rgba(255,255,255,0.6)" stroke-width="4"/><circle cx="36.54683331240991" cy="35.58022374022154" r="2" fill="rgba(255,255,255,0.8)"/><circle cx="63.45316668759009" cy="35.58022374022154" r="2" fill="rgba(255,255,255,0.8)"/></g><g transform="translate(300, 200)"><path d="M 20 100 C 20 69.47420628591266, 80 69.47420628591266, 80 100" fill="none" stroke="rgba(255,255,255,0.4)" stroke-width="4"/><circle cx="50" cy="39.75744230350103" r="29.716763982411628" fill="none" stroke="rgba(255,255,255,0.6)" stroke-width="4"/><circle cx="35.14161800879418" cy="34.75744230350103" r="2" fill="rgba(255,255,255,0.8)"/><circle cx="64.85838199120582" cy="34.75744230350103" r="2" fill="rgba(255,255,255,0.8)"/></g><g transform="translate(400, 200)"><path d="M 20 100 C 20 51.31277821229838, 80 51.31277821229838, 80 100" fill="none" stroke="rgba(255,255,255,0.4)" stroke-width="4"/><circle cx="50" cy="31.263865452089423" r="20.04891276020896" fill="none" stroke="rgba(255,255,255,0.6)" stroke-width="4"/><circle cx="39.97554361989552" cy="26.263865452089423" r="2" fill="rgba(255,255,255,0.8)"/><circle cx="60.02445638010448" cy="26.263865452089423" r="2" fill="rgba(255,255,255,0.8)"/></g><g transform="translate(500, 200)"><path d="M 20 100 C 20 59.464972594303944, 80 59.464972594303944, 80 100" fill="none" stroke="rgba(255,255,255,0.4)" stroke-width="4"/><circle cx="50" cy="32.752814543681225" r="26.71215805062272" fill="none" stroke="rgba(255,255,255,0.6)" stroke-width="4"/><circle cx="36.64392097468864" cy="27.752814543681225" r="2" fill="rgba(255,255,255,0.8)"/><circle cx="63.35607902531136" cy="27.752814543681225" r="2" fill="rgba(255,255,255,0.8)"/></g><g transform="translate(600, 200)"><path d="M 20 100 C 20 65.97740400597064, 80 65.97740400597064, 80 100" fill="none" stroke="rgba(255,255,255,0.4)" stroke-width="4"/><circle cx="50" cy="38.542093432952235" r="27.435310573018405" fill="none" stroke="rgba(255,255,255,0.6)" stroke-width="4"/><circle cx="36.2823447134908" cy="33.542093432952235" r="2" fill="rgba(255,255,255,0.8)"/><circle cx="63.7176552865092" cy="33.542093432952235" r="2" fill="rgba(255,255,255,0.8)"/></g><g transform="translate(0, 300)"><path d="M 20 100 C 20 57.20707200734975, 80 57.20707200734975, 80 100" fill="none" stroke="rgba(255,255,255,0.4)" stroke-width="4"/><circle cx="50" cy="32.54089499943427" r="24.666177007915476" fill="none" stroke="rgba(255,255,255,0.6)" stroke-width="4"/><circle cx="37.66691149604226" cy="27.540894999434272" r="2" fill="rgba(255,255,255,0.8)"/><circle cx="62.33308850395774" cy="27.540894999434272" r="2" fill="rgba(255,255,255,0.8)"/></g><g transform="translate(100, 300)"><path d="M 20 100 C 20 68.22793384673969, 80 68.22793384673969, 80 100" fill="none" stroke="rgba(255,255,255,0.4)" stroke-width="4"/><circle cx="50" cy="39.50537815568674" r="28.722555691052946" fill="none" stroke="rgba(255,255,255,0.6)" stroke-width="4"/><circle cx="35.63872215447353" cy="34.50537815568674" r="2" fill="rgba(255,255,255,0.8)"/><circle cx="64.36127784552647" cy="34.50537815568674" r="2" fill="rgba(255,255,255,0.8)"/></g><g transform="translate(200, 300)"><path d="M 20 100 C 20 53.00291973031439, 80 53.00291973031439, 80 100" fill="none" stroke="rgba(255,255,255,0.4)" stroke-width="4"/><circle cx="50" cy="24.17055186693149" r="28.8323678633829" fill="none" stroke="rgba(255,255,255,0.6)" stroke-width="4"/><circle cx="35.58381606830855" cy="19.17055186693149" r="2" fill="rgba(255,255,255,0.8)"/><circle cx="64.41618393169145" cy="19.17055186693149" r="2" fill="rgba(255,255,255,0.8)"/></g><g transform="translate(300, 300)"><path d="M 20 100 C 20 57.64293270686193, 80 57.64293270686193, 80 100" fill="none" stroke="rgba(255,255,255,0.4)" stroke-width="4"/><circle cx="50" cy="28.470898660837722" r="29.172034046024205" fill="none" stroke="rgba(255,255,255,0.6)" stroke-width="4"/><circle cx="35.413982976987896" cy="23.470898660837722" r="2" fill="rgba(255,255,255,0.8)"/><circle cx="64.5860170230121" cy="23.470898660837722" r="2" fill="rgba(255,255,255,0.8)"/></g><g transform="translate(400, 300)"><path d="M 20 100 C 20 54.52176239498387, 80 54.52176239498387, 80 100" fill="none" stroke="rgba(255,255,255,0.4)" stroke-width="4"/><circle cx="50" cy="32.18286146089284" r="22.33890093409103" fill="none" stroke="rgba(255,255,255,0.6)" stroke-width="4"/><circle cx="38.830549532954485" cy="27.182861460892838" r="2" fill="rgba(255,255,255,0.8)"/><circle cx="61.169450467045515" cy="27.182861460892838" r="2" fill="rgba(255,255,255,0.8)"/></g><g transform="translate(500, 300)"><path d="M 20 100 C 20 50.39630894886737, 80 50.39630894886737, 80 100" fill="none" stroke="rgba(255,255,255,0.4)" stroke-width="4"/><circle cx="50" cy="22.649498949965796" r="27.746809998901576" fill="none" stroke="rgba(255,255,255,0.6)" stroke-width="4"/><circle cx="36.126595000549216" cy="17.649498949965796" r="2" fill="rgba(255,255,255,0.8)"/><circle cx="63.873404999450784" cy="17.649498949965796" r="2" fill="rgba(255,255,255,0.8)"/></g><g transform="translate(600, 300)"><path d="M 20 100 C 20 52.52375459442634, 80 52.52375459442634, 80 100" fill="none" stroke="rgba(255,255,255,0.4)" stroke-width="4"/><circle cx="50" cy="25.15937363765626" r="27.364380956770084" fill="none" stroke="rgba(255,255,255,0.6)" stroke-width="4"/><circle cx="36.31780952161496" cy="20.15937363765626" r="2" fill="rgba(255,255,255,0.8)"/><circle cx="63.68219047838504" cy="20.15937363765626" r="2" fill="rgba(255,255,255,0.8)"/></g><g transform="translate(0, 400)"><path d="M 20 100 C 20 53.00310148065479, 80 53.00310148065479, 80 100" fill="none" stroke="rgba(255,255,255,0.4)" stroke-width="4"/><circle cx="50" cy="23.31973735000755" r="29.68336413064724" fill="none" stroke="rgba(255,255,255,0.6)" stroke-width="4"/><circle cx="35.158317934676376" cy="18.31973735000755" r="2" fill="rgba(255,255,255,0.8)"/><circle cx="64.84168206532362" cy="18.31973735000755" r="2" fill="rgba(255,255,255,0.8)"/></g><g transform="translate(100, 400)"><path d="M 20 100 C 20 62.09923964411705, 80 62.09923964411705, 80 100" fill="none" stroke="rgba(255,255,255,0.4)" stroke-width="4"/><circle cx="50" cy="35.257887056156946" r="26.841352587960102" fill="none" stroke="rgba(255,255,255,0.6)" stroke-width="4"/><circle cx="36.57932370601995" cy="30.257887056156946" r="2" fill="rgba(255,255,255,0.8)"/><circle cx="63.42067629398005" cy="30.257887056156946" r="2" fill="rgba(255,255,255,0.8)"/></g><g transform="translate(200, 400)"><path d="M 20 100 C 20 59.52049650796269, 80 59.52049650796269, 80 100" fill="none" stroke="rgba(255,255,255,0.4)" stroke-width="4"/><circle cx="50" cy="32.473343400073645" r="27.04715310788904" fill="none" stroke="rgba(255,255,255,0.6)" stroke-width="4"/><circle cx="36.47642344605548" cy="27.473343400073645" r="2" fill="rgba(255,255,255,0.8)"/><circle cx="63.52357655394452" cy="27.473343400073645" r="2" fill="rgba(255,255,255,0.8)"/></g><g transform="translate(300, 400)"><path d="M 20 100 C 20 69.69846002422683, 80 69.69846002422683, 80 100" fill="none" stroke="rgba(255,255,255,0.4)" stroke-width="4"/><circle cx="50" cy="44.1657545388382" r="25.53270548538863" fill="none" stroke="rgba(255,255,255,0.6)" stroke-width="4"/><circle cx="37.233647257305684" cy="39.1657545388382" r="2" fill="rgba(255,255,255,0.8)"/><circle cx="62.766352742694316" cy="39.1657545388382" r="2" fill="rgba(255,255,255,0.8)"/></g><g transform="translate(400, 400)"><path d="M 20 100 C 20 56.01553469286942, 80 56.01553469286942, 80 100" fill="none" stroke="rgba(255,255,255,0.4)" stroke-width="4"/><circle cx="50" cy="35.5069986512644" r="20.508536041605026" fill="none" stroke="rgba(255,255,255,0.6)" stroke-width="4"/><circle cx="39.74573197919749" cy="30.506998651264396" r="2" fill="rgba(255,255,255,0.8)"/><circle cx="60.25426802080251" cy="30.506998651264396" r="2" fill="rgba(255,255,255,0.8)"/></g><g transform="translate(500, 400)"><path d="M 20 100 C 20 52.86471806751848, 80 52.86471806751848, 80 100" fill="none" stroke="rgba(255,255,255,0.4)" stroke-width="4"/><circle cx="50" cy="29.74379509096061" r="23.12092297655787" fill="none" stroke="rgba(255,255,255,0.6)" stroke-width="4"/><circle cx="38.43953851172107" cy="24.74379509096061" r="2" fill="rgba(255,255,255,0.8)"/><circle cx="61.56046148827893" cy="24.74379509096061" r="2" fill="rgba(255,255,255,0.8)"/></g><g transform="translate(600, 400)"><path d="M 20 100 C 20 59.27132546789758, 80 59.27132546789758, 80 100" fill="none" stroke="rgba(255,255,255,0.4)" stroke-width="4"/><circle cx="50" cy="38.56423493988362" r="20.707090528013964" fill="none" stroke="rgba(255,255,255,0.6)" stroke-width="4"/><circle cx="39.64645473599302" cy="33.56423493988362" r="2" fill="rgba(255,255,255,0.8)"/><circle cx="60.35354526400698" cy="33.56423493988362" r="2" fill="rgba(255,255,255,0.8)"/></g><g transform="translate(0, 500)"><path d="M 20 100 C 20 60.18165242907091, 80 60.18165242907091, 80 100" fill="none" stroke="rgba(255,255,255,0.4)" stroke-width="4"/><circle cx="50" cy="34.94515298318164" r="25.236499445889265" fill="none" stroke="rgba(255,255,255,0.6)" stroke-width="4"/><circle cx="37.38175027705537" cy="29.945152983181643" r="2" fill="rgba(255,255,255,0.8)"/><circle cx="62.61824972294463" cy="29.945152983181643" r="2" fill="rgba(255,255,255,0.8)"/></g><g transform="translate(100, 500)"><path d="M 20 100 C 20 66.03489406950737, 80 66.03489406950737, 80 100" fill="none" stroke="rgba(255,255,255,0.4)" stroke-width="4"/><circle cx="50" cy="38.84632921550886" r="27.18856485399851" fill="none" stroke="rgba(255,255,255,0.6)" stroke-width="4"/><circle cx="36.40571757300074" cy="33.84632921550886" r="2" fill="rgba(255,255,255,0.8)"/><circle cx="63.59428242699926" cy="33.84632921550886" r="2" fill="rgba(255,255,255,0.8)"/></g><g transform="translate(200, 500)"><path d="M 20 100 C 20 62.04292577309685, 80 62.04292577309685, 80 100" fill="none" stroke="rgba(255,255,255,0.4)" stroke-width="4"/><circle cx="50" cy="36.86930571898242" r="25.17362005411443" fill="none" stroke="rgba(255,255,255,0.6)" stroke-width="4"/><circle cx="37.41318997294279" cy="31.869305718982417" r="2" fill="rgba(255,255,255,0.8)"/><circle cx="62.58681002705721" cy="31.869305718982417" r="2" fill="rgba(255,255,255,0.8)"/></g><g transform="translate(300, 500)"><path d="M 20 100 C 20 61.83296249659274, 80 61.83296249659274, 80 100" fill="none" stroke="rgba(255,255,255,0.4)" stroke-width="4"/><circle cx="50" cy="34.18180018858679" r="27.65116230800595" fill="none" stroke="rgba(255,255,255,0.6)" stroke-width="4"/><circle cx="36.174418845997025" cy="29.18180018858679" r="2" fill="rgba(255,255,255,0.8)"/><circle cx="63.825581154002975" cy="29.18180018858679" r="2" fill="rgba(255,255,255,0.8)"/></g><g transform="translate(400, 500)"><path d="M 20 100 C 20 54.87330437641927, 80 54.87330437641927, 80 100" fill="none" stroke="rgba(255,255,255,0.4)" stroke-width="4"/><circle cx="50" cy="31.43940570420597" r="23.4338986722133" fill="none" stroke="rgba(255,255,255,0.6)" stroke-width="4"/><circle cx="38.28305066389335" cy="26.43940570420597" r="2" fill="rgba(255,255,255,0.8)"/><circle cx="61.71694933610665" cy="26.43940570420597" r="2" fill="rgba(255,255,255,0.8)"/></g><g transform="translate(500, 500)"><path d="M 20 100 C 20 68.79119491074476, 80 68.79119491074476, 80 100" fill="none" stroke="rgba(255,255,255,0.4)" stroke-width="4"/><circle cx="50" cy="45.47978286176327" r="23.31141204898149" fill="none" stroke="rgba(255,255,255,0.6)" stroke-width="4"/><circle cx="38.34429397550925" cy="40.47978286176327" r="2" fill="rgba(255,255,255,0.8)"/><circle cx="61.65570602449075" cy="40.47978286176327" r="2" fill="rgba(255,255,255,0.8)"/></g><g transform="translate(600, 500)"><path d="M 20 100 C 20 61.028801095336874, 80 61.028801095336874, 80 100" fill="none" stroke="rgba(255,255,255,0.4)" stroke-width="4"/><circle cx="50" cy="31.41384152385342" r="29.614959571483453" fill="none" stroke="rgba(255,255,255,0.6)" stroke-width="4"/><circle cx="35.19252021425827" cy="26.41384152385342" r="2" fill="rgba(255,255,255,0.8)"/><circle cx="64.80747978574172" cy="26.41384152385342" r="2" fill="rgba(255,255,255,0.8)"/></g><g transform="translate(0, 600)"><path d="M 20 100 C 20 60.100492671617545, 80 60.100492671617545, 80 100" fill="none" stroke="rgba(255,255,255,0.4)" stroke-width="4"/><circle cx="50" cy="36.43133463238452" r="23.669158039233025" fill="none" stroke="rgba(255,255,255,0.6)" stroke-width="4"/><circle cx="38.16542098038349" cy="31.43133463238452" r="2" fill="rgba(255,255,255,0.8)"/><circle cx="61.83457901961651" cy="31.43133463238452" r="2" fill="rgba(255,255,255,0.8)"/></g><g transform="translate(100, 600)"><path d="M 20 100 C 20 59.34059949696037, 80 59.34059949696037, 80 100" fill="none" stroke="rgba(255,255,255,0.4)" stroke-width="4"/><circle cx="50" cy="35.155217031634585" r="24.185382465325787" fill="none" stroke="rgba(255,255,255,0.6)" stroke-width="4"/><circle cx="37.907308767337106" cy="30.155217031634585" r="2" fill="rgba(255,255,255,0.8)"/><circle cx="62.092691232662894" cy="30.155217031634585" r="2" fill="rgba(255,255,255,0.8)"/></g><g transform="translate(200, 600)"><path d="M 20 100 C 20 63.00706094133924, 80 63.00706094133924, 80 100" fill="none" stroke="rgba(255,255,255,0.4)" stroke-width="4"/><circle cx="50" cy="33.94244969199243" r="29.06461124934681" fill="none" stroke="rgba(255,255,255,0.6)" stroke-width="4"/><circle cx="35.467694375326595" cy="28.94244969199243" r="2" fill="rgba(255,255,255,0.8)"/><circle cx="64.5323056246734" cy="28.94244969199243" r="2" fill="rgba(255,255,255,0.8)"/></g><g transform="translate(300, 600)"><path d="M 20 100 C 20 52.59688580044178, 80 52.59688580044178, 80 100" fill="none" stroke="rgba(255,255,255,0.4)" stroke-width="4"/><circle cx="50" cy="26.30221680993292" r="26.294668990508864" fill="none" stroke="rgba(255,255,255,0.6)" stroke-width="4"/><circle cx="36.852665504745566" cy="21.30221680993292" r="2" fill="rgba(255,255,255,0.8)"/><circle cx="63.147334495254434" cy="21.30221680993292" r="2" fill="rgba(255,255,255,0.8)"/></g><g transform="translate(400, 600)"><path d="M 20 100 C 20 66.39872697479188, 80 66.39872697479188, 80 100" fill="none" stroke="rgba(255,255,255,0.4)" stroke-width="4"/><circle cx="50" cy="40.6778577578566" r="25.720869216935288" fill="none" stroke="rgba(255,255,255,0.6)" stroke-width="4"/><circle cx="37.13956539153236" cy="35.6778577578566" r="2" fill="rgba(255,255,255,0.8)"/><circle cx="62.86043460846764" cy="35.6778577578566" r="2" fill="rgba(255,255,255,0.8)"/></g><g transform="translate(500, 600)"><path d="M 20 100 C 20 65.47153817973395, 80 65.47153817973395, 80 100" fill="none" stroke="rgba(255,255,255,0.4)" stroke-width="4"/><circle cx="50" cy="39.43315117649537" r="26.038387003238583" fill="none" stroke="rgba(255,255,255,0.6)" stroke-width="4"/><circle cx="36.98080649838071" cy="34.43315117649537" r="2" fill="rgba(255,255,255,0.8)"/><circle cx="63.01919350161929" cy="34.43315117649537" r="2" fill="rgba(255,255,255,0.8)"/></g><g transform="translate(600, 600)"><path d="M 20 100 C 20 63.96347246050019, 80 63.96347246050019, 80 100" fill="none" stroke="rgba(255,255,255,0.4)" stroke-width="4"/><circle cx="50" cy="40.30558667630528" r="23.657885784194907" fill="none" stroke="rgba(255,255,255,0.6)" stroke-width="4"/><circle cx="38.17105710790255" cy="35.30558667630528" r="2" fill="rgba(255,255,255,0.8)"/><circle cx="61.82894289209745" cy="35.30558667630528" r="2" fill="rgba(255,255,255,0.8)"/></g><g transform="translate(0, 700)"><path d="M 20 100 C 20 60.268494027291, 80 60.268494027291, 80 100" fill="none" stroke="rgba(255,255,255,0.4)" stroke-width="4"/><circle cx="50" cy="37.74844145836033" r="22.520052568930666" fill="none" stroke="rgba(255,255,255,0.6)" stroke-width="4"/><circle cx="38.73997371553467" cy="32.74844145836033" r="2" fill="rgba(255,255,255,0.8)"/><circle cx="61.26002628446533" cy="32.74844145836033" r="2" fill="rgba(255,255,255,0.8)"/></g><g transform="translate(100, 700)"><path d="M 20 100 C 20 57.778009151024875, 80 57.778009151024875, 80 100" fill="none" stroke="rgba(255,255,255,0.4)" stroke-width="4"/><circle cx="50" cy="33.936956656634784" r="23.84105249439009" fill="none" stroke="rgba(255,255,255,0.6)" stroke-width="4"/><circle cx="38.07947375280496" cy="28.936956656634784" r="2" fill="rgba(255,255,255,0.8)"/><circle cx="61.92052624719504" cy="28.936956656634784" r="2" fill="rgba(255,255,255,0.8)"/></g><g transform="translate(200, 700)"><path d="M 20 100 C 20 68.82934423908605, 80 68.82934423908605, 80 100" fill="none" stroke="rgba(255,255,255,0.4)" stroke-width="4"/><circle cx="50" cy="48.214338812938294" r="20.61500542614776" fill="none" stroke="rgba(255,255,255,0.6)" stroke-width="4"/><circle cx="39.69249728692612" cy="43.214338812938294" r="2" fill="rgba(255,255,255,0.8)"/><circle cx="60.30750271307388" cy="43.214338812938294" r="2" fill="rgba(255,255,255,0.8)"/></g><g transform="translate(300, 700)"><path d="M 20 100 C 20 57.00296083256427, 80 57.00296083256427, 80 100" fill="none" stroke="rgba(255,255,255,0.4)" stroke-width="4"/><circle cx="50" cy="27.05763498178198" r="29.94532585078229" fill="none" stroke="rgba(255,255,255,0.6)" stroke-width="4"/><circle cx="35.02733707460885" cy="22.05763498178198" r="2" fill="rgba(255,255,255,0.8)"/><circle cx="64.97266292539115" cy="22.05763498178198" r="2" fill="rgba(255,255,255,0.8)"/></g><g transform="translate(400, 700)"><path d="M 20 100 C 20 51.71810542100018, 80 51.71810542100018, 80 100" fill="none" stroke="rgba(255,255,255,0.4)" stroke-width="4"/><circle cx="50" cy="30.80100175908842" r="20.91710366191176" fill="none" stroke="rgba(255,255,255,0.6)" stroke-width="4"/><circle cx="39.541448169044116" cy="25.80100175908842" r="2" fill="rgba(255,255,255,0.8)"/><circle cx="60.458551830955884" cy="25.80100175908842" r="2" fill="rgba(255,255,255,0.8)"/></g><g transform="translate(500, 700)"><path d="M 20 100 C 20 60.05698253174724, 80 60.05698253174724, 80 100" fill="none" stroke="rgba(255,255,255,0.4)" stroke-width="4"/><circle cx="50" cy="36.366629332817375" r="23.690353198929863" fill="none" stroke="rgba(255,255,255,0.6)" stroke-width="4"/><circle cx="38.154823400535065" cy="31.366629332817375" r="2" fill="rgba(255,255,255,0.8)"/><circle cx="61.845176599464935" cy="31.366629332817375" r="2" fill="rgba(255,255,255,0.8)"/></g><g transform="translate(600, 700)"><path d="M 20 100 C 20 62.10504165843194, 80 62.10504165843194, 80 100" fill="none" stroke="rgba(255,255,255,0.4)" stroke-width="4"/><circle cx="50" cy="36.35171202721987" r="25.75332963121207" fill="none" stroke="rgba(255,255,255,0.6)" stroke-width="4"/><circle cx="37.123335184393966" cy="31.351712027219868" r="2" fill="rgba(255,255,255,0.8)"/><circle cx="62.876664815606034" cy="31.351712027219868" r="2" fill="rgba(255,255,255,0.8)"/></g><g transform="translate(0, 800)"><path d="M 20 100 C 20 63.95156931198815, 80 63.95156931198815, 80 100" fill="none" stroke="rgba(255,255,255,0.4)" stroke-width="4"/><circle cx="50" cy="37.87604113263731" r="26.075528179350837" fill="none" stroke="rgba(255,255,255,0.6)" stroke-width="4"/><circle cx="36.96223591032458" cy="32.87604113263731" r="2" fill="rgba(255,255,255,0.8)"/><circle cx="63.03776408967542" cy="32.87604113263731" r="2" fill="rgba(255,255,255,0.8)"/></g><g transform="translate(100, 800)"><path d="M 20 100 C 20 58.51491357677462, 80 58.51491357677462, 80 100" fill="none" stroke="rgba(255,255,255,0.4)" stroke-width="4"/><circle cx="50" cy="31.245946632992357" r="27.26896694378226" fill="none" stroke="rgba(255,255,255,0.6)" stroke-width="4"/><circle cx="36.36551652810887" cy="26.245946632992357" r="2" fill="rgba(255,255,255,0.8)"/><circle cx="63.63448347189113" cy="26.245946632992357" r="2" fill="rgba(255,255,255,0.8)"/></g><g transform="translate(200, 800)"><path d="M 20 100 C 20 55.243907815864716, 80 55.243907815864716, 80 100" fill="none" stroke="rgba(255,255,255,0.4)" stroke-width="4"/><circle cx="50" cy="29.84072097272427" r="25.403186843140446" fill="none" stroke="rgba(255,255,255,0.6)" stroke-width="4"/><circle cx="37.29840657842978" cy="24.84072097272427" r="2" fill="rgba(255,255,255,0.8)"/><circle cx="62.70159342157022" cy="24.84072097272427" r="2" fill="rgba(255,255,255,0.8)"/></g><g transform="translate(300, 800)"><path d="M 20 100 C 20 56.22129177642079, 80 56.22129177642079, 80 100" fill="none" stroke="rgba(255,255,255,0.4)" stroke-width="4"/><circle cx="50" cy="35.33407887402267" r="20.88721290239812" fill="none" stroke="rgba(255,255,255,0.6)" stroke-width="4"/><circle cx="39.55639354880094" cy="30.334078874022673" r="2" fill="rgba(255,255,255,0.8)"/><circle cx="60.44360645119906" cy="30.334078874022673" r="2" fill="rgba(255,255,255,0.8)"/></g><g transform="translate(400, 800)"><path d="M 20 100 C 20 63.23061970396897, 80 63.23061970396897, 80 100" fill="none" stroke="rgba(255,255,255,0.4)" stroke-width="4"/><circle cx="50" cy="43.05976461619652" r="20.170855087772452" fill="none" stroke="rgba(255,255,255,0.6)" stroke-width="4"/><circle cx="39.914572456113774" cy="38.05976461619652" r="2" fill="rgba(255,255,255,0.8)"/><circle cx="60.085427543886226" cy="38.05976461619652" r="2" fill="rgba(255,255,255,0.8)"/></g><g transform="translate(500, 800)"><path d="M 20 100 C 20 61.50866366082183, 80 61.50866366082183, 80 100" fill="none" stroke="rgba(255,255,255,0.4)" stroke-width="4"/><circle cx="50" cy="35.143477759142876" r="26.365185901678956" fill="none" stroke="rgba(255,255,255,0.6)" stroke-width="4"/><circle cx="36.81740704916052" cy="30.143477759142876" r="2" fill="rgba(255,255,255,0.8)"/><circle cx="63.18259295083948" cy="30.143477759142876" r="2" fill="rgba(255,255,255,0.8)"/></g><g transform="translate(600, 800)"><path d="M 20 100 C 20 66.89595672698634, 80 66.89595672698634, 80 100" fill="none" stroke="rgba(255,255,255,0.4)" stroke-width="4"/><circle cx="50" cy="43.47404620142426" r="23.421910525562087" fill="none" stroke="rgba(255,255,255,0.6)" stroke-width="4"/><circle cx="38.28904473721896" cy="38.47404620142426" r="2" fill="rgba(255,255,255,0.8)"/><circle cx="61.71095526278104" cy="38.47404620142426" r="2" fill="rgba(255,255,255,0.8)"/></g><g transform="translate(0, 900)"><path d="M 20 100 C 20 51.37972468186215, 80 51.37972468186215, 80 100" fill="none" stroke="rgba(255,255,255,0.4)" stroke-width="4"/><circle cx="50" cy="28.266230466392123" r="23.113494215470027" fill="none" stroke="rgba(255,255,255,0.6)" stroke-width="4"/><circle cx="38.44325289226499" cy="23.266230466392123" r="2" fill="rgba(255,255,255,0.8)"/><circle cx="61.55674710773501" cy="23.266230466392123" r="2" fill="rgba(255,255,255,0.8)"/></g><g transform="translate(100, 900)"><path d="M 20 100 C 20 56.88003249599166, 80 56.88003249599166, 80 100" fill="none" stroke="rgba(255,255,255,0.4)" stroke-width="4"/><circle cx="50" cy="27.433639148177917" r="29.44639334781374" fill="none" stroke="rgba(255,255,255,0.6)" stroke-width="4"/><circle cx="35.27680332609313" cy="22.433639148177917" r="2" fill="rgba(255,255,255,0.8)"/><circle cx="64.72319667390687" cy="22.433639148177917" r="2" fill="rgba(255,255,255,0.8)"/></g><g transform="translate(200, 900)"><path d="M 20 100 C 20 66.93284226055752, 80 66.93284226055752, 80 100" fill="none" stroke="rgba(255,255,255,0.4)" stroke-width="4"/><circle cx="50" cy="39.97033323564731" r="26.96250902491021" fill="none" stroke="rgba(255,255,255,0.6)" stroke-width="4"/><circle cx="36.51874548754489" cy="34.97033323564731" r="2" fill="rgba(255,255,255,0.8)"/><circle cx="63.48125451245511" cy="34.97033323564731" r="2" fill="rgba(255,255,255,0.8)"/></g><g transform="translate(300, 900)"><path d="M 20 100 C 20 56.41125618188565, 80 56.41125618188565, 80 100" fill="none" stroke="rgba(255,255,255,0.4)" stroke-width="4"/><circle cx="50" cy="28.442850256628134" r="27.968405925257514" fill="none" stroke="rgba(255,255,255,0.6)" stroke-width="4"/><circle cx="36.01579703737124" cy="23.442850256628134" r="2" fill="rgba(255,255,255,0.8)"/><circle cx="63.98420296262876" cy="23.442850256628134" r="2" fill="rgba(255,255,255,0.8)"/></g><g transform="translate(400, 900)"><path d="M 20 100 C 20 69.46616715246837, 80 69.46616715246837, 80 100" fill="none" stroke="rgba(255,255,255,0.4)" stroke-width="4"/><circle cx="50" cy="48.736151569907136" r="20.730015582561233" fill="none" stroke="rgba(255,255,255,0.6)" stroke-width="4"/><circle cx="39.63499220871938" cy="43.736151569907136" r="2" fill="rgba(255,255,255,0.8)"/><circle cx="60.36500779128062" cy="43.736151569907136" r="2" fill="rgba(255,255,255,0.8)"/></g><g transform="translate(500, 900)"><path d="M 20 100 C 20 63.54681928077875, 80 63.54681928077875, 80 100" fill="none" stroke="rgba(255,255,255,0.4)" stroke-width="4"/><circle cx="50" cy="38.55297951535233" r="24.993839765426422" fill="none" stroke="rgba(255,255,255,0.6)" stroke-width="4"/><circle cx="37.503080117286785" cy="33.55297951535233" r="2" fill="rgba(255,255,255,0.8)"/><circle cx="62.496919882713215" cy="33.55297951535233" r="2" fill="rgba(255,255,255,0.8)"/></g><g transform="translate(600, 900)"><path d="M 20 100 C 20 68.22419757644678, 80 68.22419757644678, 80 100" fill="none" stroke="rgba(255,255,255,0.4)" stroke-width="4"/><circle cx="50" cy="40.66708211374729" r="27.557115462699493" fill="none" stroke="rgba(255,255,255,0.6)" stroke-width="4"/><circle cx="36.22144226865025" cy="35.66708211374729" r="2" fill="rgba(255,255,255,0.8)"/><circle cx="63.77855773134975" cy="35.66708211374729" r="2" fill="rgba(255,255,255,0.8)"/></g><g transform="translate(0, 1000)"><path d="M 20 100 C 20 62.80625043121076, 80 62.80625043121076, 80 100" fill="none" stroke="rgba(255,255,255,0.4)" stroke-width="4"/><circle cx="50" cy="42.45586467960972" r="20.35038575160105" fill="none" stroke="rgba(255,255,255,0.6)" stroke-width="4"/><circle cx="39.824807124199474" cy="37.45586467960972" r="2" fill="rgba(255,255,255,0.8)"/><circle cx="60.175192875800526" cy="37.45586467960972" r="2" fill="rgba(255,255,255,0.8)"/></g><g transform="translate(100, 1000)"><path d="M 20 100 C 20 54.03638252414079, 80 54.03638252414079, 80 100" fill="none" stroke="rgba(255,255,255,0.4)" stroke-width="4"/><circle cx="50" cy="25.018389674732134" r="29.017992849408657" fill="none" stroke="rgba(255,255,255,0.6)" stroke-width="4"/><circle cx="35.49100357529567" cy="20.018389674732134" r="2" fill="rgba(255,255,255,0.8)"/><circle cx="64.50899642470432" cy="20.018389674732134" r="2" fill="rgba(255,255,255,0.8)"/></g><g transform="translate(200, 1000)"><path d="M 20 100 C 20 64.18028714132764, 80 64.18028714132764, 80 100" fill="none" stroke="rgba(255,255,255,0.4)" stroke-width="4"/><circle cx="50" cy="34.48619269467068" r="29.69409444665696" fill="none" stroke="rgba(255,255,255,0.6)" stroke-width="4"/><circle cx="35.15295277667152" cy="29.486192694670677" r="2" fill="rgba(255,255,255,0.8)"/><circle cx="64.84704722332847" cy="29.486192694670677" r="2" fill="rgba(255,255,255,0.8)"/></g><g transform="translate(300, 1000)"><path d="M 20 100 C 20 56.14150602041535, 80 56.14150602041535, 80 100" fill="none" stroke="rgba(255,255,255,0.4)" stroke-width="4"/><circle cx="50" cy="32.732095430703126" r="23.409410589712227" fill="none" stroke="rgba(255,255,255,0.6)" stroke-width="4"/><circle cx="38.29529470514389" cy="27.732095430703126" r="2" fill="rgba(255,255,255,0.8)"/><circle cx="61.70470529485611" cy="27.732095430703126" r="2" fill="rgba(255,255,255,0.8)"/></g><g transform="translate(400, 1000)"><path d="M 20 100 C 20 62.95637890444845, 80 62.95637890444845, 80 100" fill="none" stroke="rgba(255,255,255,0.4)" stroke-width="4"/><circle cx="50" cy="40.64949692363676" r="22.306881980811685" fill="none" stroke="rgba(255,255,255,0.6)" stroke-width="4"/><circle cx="38.84655900959416" cy="35.64949692363676" r="2" fill="rgba(255,255,255,0.8)"/><circle cx="61.15344099040584" cy="35.64949692363676" r="2" fill="rgba(255,255,255,0.8)"/></g><g transform="translate(500, 1000)"><path d="M 20 100 C 20 57.502816617419086, 80 57.502816617419086, 80 100" fill="none" stroke="rgba(255,255,255,0.4)" stroke-width="4"/><circle cx="50" cy="33.523367322100725" r="23.979449295318357" fill="none" stroke="rgba(255,255,255,0.6)" stroke-width="4"/><circle cx="38.01027535234082" cy="28.523367322100725" r="2" fill="rgba(255,255,255,0.8)"/><circle cx="61.98972464765918" cy="28.523367322100725" r="2" fill="rgba(255,255,255,0.8)"/></g><g transform="translate(600, 1000)"><path d="M 20 100 C 20 62.08820113071389, 80 62.08820113071389, 80 100" fill="none" stroke="rgba(255,255,255,0.4)" stroke-width="4"/><circle cx="50" cy="41.606511006610944" r="20.48169012410295" fill="none" stroke="rgba(255,255,255,0.6)" stroke-width="4"/><circle cx="39.75915493794852" cy="36.606511006610944" r="2" fill="rgba(255,255,255,0.8)"/><circle cx="60.24084506205148" cy="36.606511006610944" r="2" fill="rgba(255,255,255,0.8)"/></g><g transform="translate(0, 1100)"><path d="M 20 100 C 20 51.71935285902738, 80 51.71935285902738, 80 100" fill="none" stroke="rgba(255,255,255,0.4)" stroke-width="4"/><circle cx="50" cy="25.14796609906409" r="26.571386759963293" fill="none" stroke="rgba(255,255,255,0.6)" stroke-width="4"/><circle cx="36.714306620018355" cy="20.14796609906409" r="2" fill="rgba(255,255,255,0.8)"/><circle cx="63.285693379981645" cy="20.14796609906409" r="2" fill="rgba(255,255,255,0.8)"/></g><g transform="translate(100, 1100)"><path d="M 20 100 C 20 53.28066550992587, 80 53.28066550992587, 80 100" fill="none" stroke="rgba(255,255,255,0.4)" stroke-width="4"/><circle cx="50" cy="32.30970662361857" r="20.9709588863073" fill="none" stroke="rgba(255,255,255,0.6)" stroke-width="4"/><circle cx="39.51452055684635" cy="27.309706623618567" r="2" fill="rgba(255,255,255,0.8)"/><circle cx="60.48547944315365" cy="27.309706623618567" r="2" fill="rgba(255,255,255,0.8)"/></g><g transform="translate(200, 1100)"><path d="M 20 100 C 20 62.522524856428156, 80 62.522524856428156, 80 100" fill="none" stroke="rgba(255,255,255,0.4)" stroke-width="4"/><circle cx="50" cy="33.37170490758086" r="29.150819948847293" fill="none" stroke="rgba(255,255,255,0.6)" stroke-width="4"/><circle cx="35.42459002557635" cy="28.371704907580863" r="2" fill="rgba(255,255,255,0.8)"/><circle cx="64.57540997442365" cy="28.371704907580863" r="2" fill="rgba(255,255,255,0.8)"/></g><g transform="translate(300, 1100)"><path d="M 20 100 C 20 60.45021925149014, 80 60.45021925149014, 80 100" fill="none" stroke="rgba(255,255,255,0.4)" stroke-width="4"/><circle cx="50" cy="35.51080880935443" r="24.939410442135706" fill="none" stroke="rgba(255,255,255,0.6)" stroke-width="4"/><circle cx="37.530294778932145" cy="30.51080880935443" r="2" fill="rgba(255,255,255,0.8)"/><circle cx="62.469705221067855" cy="30.51080880935443" r="2" fill="rgba(255,255,255,0.8)"/></g><g transform="translate(400, 1100)"><path d="M 20 100 C 20 64.66945318841992, 80 64.66945318841992, 80 100" fill="none" stroke="rgba(255,255,255,0.4)" stroke-width="4"/><circle cx="50" cy="40.93335613983926" r="23.736097048580664" fill="none" stroke="rgba(255,255,255,0.6)" stroke-width="4"/><circle cx="38.13195147570967" cy="35.93335613983926" r="2" fill="rgba(255,255,255,0.8)"/><circle cx="61.86804852429033" cy="35.93335613983926" r="2" fill="rgba(255,255,255,0.8)"/></g><g transform="translate(500, 1100)"><path d="M 20 100 C 20 58.66287317281176, 80 58.66287317281176, 80 100" fill="none" stroke="rgba(255,255,255,0.4)" stroke-width="4"/><circle cx="50" cy="34.0162888677273" r="24.646584305084463" fill="none" stroke="rgba(255,255,255,0.6)" stroke-width="4"/><circle cx="37.67670784745777" cy="29.016288867727297" r="2" fill="rgba(255,255,255,0.8)"/><circle cx="62.32329215254223" cy="29.016288867727297" r="2" fill="rgba(255,255,255,0.8)"/></g><g transform="translate(600, 1100)"><path d="M 20 100 C 20 51.58399538722071, 80 51.58399538722071, 80 100" fill="none" stroke="rgba(255,255,255,0.4)" stroke-width="4"/><circle cx="50" cy="28.264348433225283" r="23.319646953995427" fill="none" stroke="rgba(255,255,255,0.6)" stroke-width="4"/><circle cx="38.340176523002285" cy="23.264348433225283" r="2" fill="rgba(255,255,255,0.8)"/><circle cx="61.659823476997715" cy="23.264348433225283" r="2" fill="rgba(255,255,255,0.8)"/></g><g transform="translate(0, 1200)"><path d="M 20 100 C 20 63.35637892966296, 80 63.35637892966296, 80 100" fill="none" stroke="rgba(255,255,255,0.4)" stroke-width="4"/><circle cx="50" cy="42.334280095007344" r="21.022098834655615" fill="none" stroke="rgba(255,255,255,0.6)" stroke-width="4"/><circle cx="39.48895058267219" cy="37.334280095007344" r="2" fill="rgba(255,255,255,0.8)"/><circle cx="60.51104941732781" cy="37.334280095007344" r="2" fill="rgba(255,255,255,0.8)"/></g><g transform="translate(100, 1200)"><path d="M 20 100 C 20 58.2147191888986, 80 58.2147191888986, 80 100" fill="none" stroke="rgba(255,255,255,0.4)" stroke-width="4"/><circle cx="50" cy="30.377525545648048" r="27.83719364325055" fill="none" stroke="rgba(255,255,255,0.6)" stroke-width="4"/><circle cx="36.08140317837473" cy="25.377525545648048" r="2" fill="rgba(255,255,255,0.8)"/><circle cx="63.91859682162527" cy="25.377525545648048" r="2" fill="rgba(255,255,255,0.8)"/></g><g transform="translate(200, 1200)"><path d="M 20 100 C 20 67.2331288412388, 80 67.2331288412388, 80 100" fill="none" stroke="rgba(255,255,255,0.4)" stroke-width="4"/><circle cx="50" cy="43.881918431028254" r="23.351210410210545" fill="none" stroke="rgba(255,255,255,0.6)" stroke-width="4"/><circle cx="38.32439479489473" cy="38.881918431028254" r="2" fill="rgba(255,255,255,0.8)"/><circle cx="61.67560520510527" cy="38.881918431028254" r="2" fill="rgba(255,255,255,0.8)"/></g><g transform="translate(300, 1200)"><path d="M 20 100 C 20 60.24167748501283, 80 60.24167748501283, 80 100" fill="none" stroke="rgba(255,255,255,0.4)" stroke-width="4"/><circle cx="50" cy="37.65772409826446" r="22.58395338674837" fill="none" stroke="rgba(255,255,255,0.6)" stroke-width="4"/><circle cx="38.70802330662582" cy="32.65772409826446" r="2" fill="rgba(255,255,255,0.8)"/><circle cx="61.29197669337418" cy="32.65772409826446" r="2" fill="rgba(255,255,255,0.8)"/></g><g transform="translate(400, 1200)"><path d="M 20 100 C 20 54.29730756808625, 80 54.29730756808625, 80 100" fill="none" stroke="rgba(255,255,255,0.4)" stroke-width="4"/><circle cx="50" cy="32.8403505765818" r="21.45695699150445" fill="none" stroke="rgba(255,255,255,0.6)" stroke-width="4"/><circle cx="39.27152150424777" cy="27.8403505765818" r="2" fill="rgba(255,255,255,0.8)"/><circle cx="60.72847849575223" cy="27.8403505765818" r="2" fill="rgba(255,255,255,0.8)"/></g><g transform="translate(500, 1200)"><path d="M 20 100 C 20 58.62255641029731, 80 58.62255641029731, 80 100" fill="none" stroke="rgba(255,255,255,0.4)" stroke-width="4"/><circle cx="50" cy="29.311026994529897" r="29.31152941576741" fill="none" stroke="rgba(255,255,255,0.6)" stroke-width="4"/><circle cx="35.344235292116295" cy="24.311026994529897" r="2" fill="rgba(255,255,255,0.8)"/><circle cx="64.6557647078837" cy="24.311026994529897" r="2" fill="rgba(255,255,255,0.8)"/></g><g transform="translate(600, 1200)"><path d="M 20 100 C 20 61.06540274320641, 80 61.06540274320641, 80 100" fill="none" stroke="rgba(255,255,255,0.4)" stroke-width="4"/><circle cx="50" cy="37.92200137504152" r="23.1434013681649" fill="none" stroke="rgba(255,255,255,0.6)" stroke-width="4"/><circle cx="38.42829931591755" cy="32.92200137504152" r="2" fill="rgba(255,255,255,0.8)"/><circle cx="61.57170068408245" cy="32.92200137504152" r="2" fill="rgba(255,255,255,0.8)"/></g><g transform="translate(0, 1300)"><path d="M 20 100 C 20 56.70577493983977, 80 56.70577493983977, 80 100" fill="none" stroke="rgba(255,255,255,0.4)" stroke-width="4"/><circle cx="50" cy="26.937738521382606" r="29.768036418457164" fill="none" stroke="rgba(255,255,255,0.6)" stroke-width="4"/><circle cx="35.115981790771414" cy="21.937738521382606" r="2" fill="rgba(255,255,255,0.8)"/><circle cx="64.88401820922859" cy="21.937738521382606" r="2" fill="rgba(255,255,255,0.8)"/></g><g transform="translate(100, 1300)"><path d="M 20 100 C 20 59.51970624757537, 80 59.51970624757537, 80 100" fill="none" stroke="rgba(255,255,255,0.4)" stroke-width="4"/><circle cx="50" cy="30.732315430552827" r="28.787390817022544" fill="none" stroke="rgba(255,255,255,0.6)" stroke-width="4"/><circle cx="35.60630459148873" cy="25.732315430552827" r="2" fill="rgba(255,255,255,0.8)"/><circle cx="64.39369540851128" cy="25.732315430552827" r="2" fill="rgba(255,255,255,0.8)"/></g><g transform="translate(200, 1300)"><path d="M 20 100 C 20 61.56298402312597, 80 61.56298402312597, 80 100" fill="none" stroke="rgba(255,255,255,0.4)" stroke-width="4"/><circle cx="50" cy="40.871694757556455" r="20.69128926556952" fill="none" stroke="rgba(255,255,255,0.6)" stroke-width="4"/><circle cx="39.65435536721524" cy="35.871694757556455" r="2" fill="rgba(255,255,255,0.8)"/><circle cx="60.34564463278476" cy="35.871694757556455" r="2" fill="rgba(255,255,255,0.8)"/></g><g transform="translate(300, 1300)"><path d="M 20 100 C 20 61.14152018689819, 80 61.14152018689819, 80 100" fill="none" stroke="rgba(255,255,255,0.4)" stroke-width="4"/><circle cx="50" cy="34.827981803562835" r="26.313538383335356" fill="none" stroke="rgba(255,255,255,0.6)" stroke-width="4"/><circle cx="36.84323080833232" cy="29.827981803562835" r="2" fill="rgba(255,255,255,0.8)"/><circle cx="63.15676919166768" cy="29.827981803562835" r="2" fill="rgba(255,255,255,0.8)"/></g><g transform="translate(400, 1300)"><path d="M 20 100 C 20 62.60639295885192, 80 62.60639295885192, 80 100" fill="none" stroke="rgba(255,255,255,0.4)" stroke-width="4"/><circle cx="50" cy="36.325879627475985" r="26.28051333137594" fill="none" stroke="rgba(255,255,255,0.6)" stroke-width="4"/><circle cx="36.85974333431203" cy="31.325879627475985" r="2" fill="rgba(255,255,255,0.8)"/><circle cx="63.14025666568797" cy="31.325879627475985" r="2" fill="rgba(255,255,255,0.8)"/></g><g transform="translate(500, 1300)"><path d="M 20 100 C 20 55.00258047555314, 80 55.00258047555314, 80 100" fill="none" stroke="rgba(255,255,255,0.4)" stroke-width="4"/><circle cx="50" cy="25.487962962697527" r="29.51461751285561" fill="none" stroke="rgba(255,255,255,0.6)" stroke-width="4"/><circle cx="35.242691243572196" cy="20.487962962697527" r="2" fill="rgba(255,255,255,0.8)"/><circle cx="64.7573087564278" cy="20.487962962697527" r="2" fill="rgba(255,255,255,0.8)"/></g><g transform="translate(600, 1300)"><path d="M 20 100 C 20 53.42508766101797, 80 53.42508766101797, 80 100" fill="none" stroke="rgba(255,255,255,0.4)" stroke-width="4"/><circle cx="50" cy="28.761894160309893" r="24.663193500708076" fill="none" stroke="rgba(255,255,255,0.6)" stroke-width="4"/><circle cx="37.66840324964596" cy="23.761894160309893" r="2" fill="rgba(255,255,255,0.8)"/><circle cx="62.33159675035404" cy="23.761894160309893" r="2" fill="rgba(255,255,255,0.8)"/></g><g transform="translate(0, 1400)"><path d="M 20 100 C 20 60.641695345189454, 80 60.641695345189454, 80 100" fill="none" stroke="rgba(255,255,255,0.4)" stroke-width="4"/><circle cx="50" cy="32.31829596552101" r="28.323399379668444" fill="none" stroke="rgba(255,255,255,0.6)" stroke-width="4"/><circle cx="35.83830031016578" cy="27.31829596552101" r="2" fill="rgba(255,255,255,0.8)"/><circle cx="64.16169968983422" cy="27.31829596552101" r="2" fill="rgba(255,255,255,0.8)"/></g><g transform="translate(100, 1400)"><path d="M 20 100 C 20 53.938041687250575, 80 53.938041687250575, 80 100" fill="none" stroke="rgba(255,255,255,0.4)" stroke-width="4"/><circle cx="50" cy="32.5394622040281" r="21.39857948322248" fill="none" stroke="rgba(255,255,255,0.6)" stroke-width="4"/><circle cx="39.30071025838876" cy="27.539462204028098" r="2" fill="rgba(255,255,255,0.8)"/><circle cx="60.69928974161124" cy="27.539462204028098" r="2" fill="rgba(255,255,255,0.8)"/></g><g transform="translate(200, 1400)"><path d="M 20 100 C 20 55.022121608228524, 80 55.022121608228524, 80 100" fill="none" stroke="rgba(255,255,255,0.4)" stroke-width="4"/><circle cx="50" cy="25.479963836628144" r="29.54215777160038" fill="none" stroke="rgba(255,255,255,0.6)" stroke-width="4"/><circle cx="35.22892111419981" cy="20.479963836628144" r="2" fill="rgba(255,255,255,0.8)"/><circle cx="64.7710788858002" cy="20.479963836628144" r="2" fill="rgba(255,255,255,0.8)"/></g><g transform="translate(300, 1400)"><path d="M 20 100 C 20 58.562724169279875, 80 58.562724169279875, 80 100" fill="none" stroke="rgba(255,255,255,0.4)" stroke-width="4"/><circle cx="50" cy="38.52755111874549" r="20.035173050534386" fill="none" stroke="rgba(255,255,255,0.6)" stroke-width="4"/><circle cx="39.98241347473281" cy="33.52755111874549" r="2" fill="rgba(255,255,255,0.8)"/><circle cx="60.01758652526719" cy="33.52755111874549" r="2" fill="rgba(255,255,255,0.8)"/></g><g transform="translate(400, 1400)"><path d="M 20 100 C 20 61.26288597364396, 80 61.26288597364396, 80 100" fill="none" stroke="rgba(255,255,255,0.4)" stroke-width="4"/><circle cx="50" cy="33.50198770680687" r="27.76089826683709" fill="none" stroke="rgba(255,255,255,0.6)" stroke-width="4"/><circle cx="36.119550866581456" cy="28.501987706806872" r="2" fill="rgba(255,255,255,0.8)"/><circle cx="63.880449133418544" cy="28.501987706806872" r="2" fill="rgba(255,255,255,0.8)"/></g><g transform="translate(500, 1400)"><path d="M 20 100 C 20 56.52136341031377, 80 56.52136341031377, 80 100" fill="none" stroke="rgba(255,255,255,0.4)" stroke-width="4"/><circle cx="50" cy="34.76416064014104" r="21.75720277017273" fill="none" stroke="rgba(255,255,255,0.6)" stroke-width="4"/><circle cx="39.12139861491364" cy="29.764160640141043" r="2" fill="rgba(255,255,255,0.8)"/><circle cx="60.87860138508636" cy="29.764160640141043" r="2" fill="rgba(255,255,255,0.8)"/></g><g transform="translate(600, 1400)"><path d="M 20 100 C 20 59.4213245184539, 80 59.4213245184539, 80 100" fill="none" stroke="rgba(255,255,255,0.4)" stroke-width="4"/><circle cx="50" cy="37.02476988295597" r="22.396554635497928" fill="none" stroke="rgba(255,255,255,0.6)" stroke-width="4"/><circle cx="38.80172268225104" cy="32.02476988295597" r="2" fill="rgba(255,255,255,0.8)"/><circle cx="61.19827731774896" cy="32.02476988295597" r="2" fill="rgba(255,255,255,0.8)"/></g></svg>